{
    "asset" : {
        "generator" : "Khronos glTF Blender I/O v1.1.46",
        "version" : "2.0"
    },
    "scene" : 0,
    "scenes" : [
        {
            "name" : "Scene",
            "nodes" : [
                0,
                1,
                2
            ]
        }
    ],
    "nodes" : [
        {
            "mesh" : 0,
            "name" : "_HandSanitizer_v1",
            "scale" : [
                12,
                12,
                12
            ]
        },
        {
            "mesh" : 1,
            "name" : "labelBackground",
            "scale" : [
                0.2562919855117798,
                0.2562919855117798,
                0.2562919855117798
            ],
            "translation" : [
                0,
                0.20000000298023224,
                1.0035048723220825
            ]
        },
        {
            "mesh" : 2,
            "name" : "labelLogoField",
            "scale" : [
                0.2562919855117798,
                0.2562919855117798,
                0.2562919855117798
            ],
            "translation" : [
                0,
                0.20000000298023224,
                1.0035048723220825
            ]
        }
    ],
    "materials" : [
        {
            "alphaMode" : "BLEND",
            "doubleSided" : true,
            "emissiveFactor" : [
                0,
                0,
                0
            ],
            "name" : "_HandSanitizer_v1",
            "pbrMetallicRoughness" : {
                "baseColorTexture" : {
                    "index" : 0,
                    "texCoord" : 0
                },
                "metallicFactor" : 0,
                "roughnessFactor" : 0.5
            }
        },
        {
            "doubleSided" : true,
            "emissiveFactor" : [
                0,
                0,
                0
            ],
            "name" : "labelBackground",
            "pbrMetallicRoughness" : {
                "baseColorTexture" : {
                    "index" : 1,
                    "texCoord" : 0
                },
                "metallicFactor" : 0,
                "roughnessFactor" : 0
            }
        },
        {
            "doubleSided" : true,
            "emissiveFactor" : [
                0,
                0,
                0
            ],
            "name" : "logoMaterial",
            "pbrMetallicRoughness" : {
                "baseColorTexture" : {
                    "index" : 2,
                    "texCoord" : 0
                },
                "metallicFactor" : 0,
                "roughnessFactor" : 0
            }
        }
    ],
    "meshes" : [
        {
            "name" : "_HandSanitizer_v1",
            "primitives" : [
                {
                    "attributes" : {
                        "POSITION" : 0,
                        "NORMAL" : 1,
                        "TEXCOORD_0" : 2
                    },
                    "indices" : 3,
                    "material" : 0
                }
            ]
        },
        {
            "name" : "labelBackground",
            "primitives" : [
                {
                    "attributes" : {
                        "POSITION" : 4,
                        "NORMAL" : 5,
                        "TEXCOORD_0" : 6
                    },
                    "indices" : 7,
                    "material" : 1
                }
            ]
        },
        {
            "name" : "labelLogoField",
            "primitives" : [
                {
                    "attributes" : {
                        "POSITION" : 8,
                        "NORMAL" : 9,
                        "TEXCOORD_0" : 10
                    },
                    "indices" : 7,
                    "material" : 2
                }
            ]
        }
    ],
    "textures" : [
        {
            "sampler" : 0,
            "source" : 0
        },
        {
            "source" : 1
        },
        {
            "source" : 2
        }
    ],
    "images" : [
        {
            "bufferView" : 4,
            "mimeType" : "image/png",
            "name" : "_HandSanitizer_v1"
        },
        {
            "bufferView" : 9,
            "mimeType" : "image/png",
            "name" : "HandSanitizer_PrintReady_Image"
        },
        {
            "bufferView" : 13,
            "mimeType" : "image/png",
            "name" : "sample_logo"
        }
    ],
    "accessors" : [
        {
            "bufferView" : 0,
            "componentType" : 5126,
            "count" : 4,
            "max" : [
                0.4000000059604645,
                0,
                0.5
            ],
            "min" : [
                -0.4000000059604645,
                0,
                -0.5
            ],
            "type" : "VEC3"
        },
        {
            "bufferView" : 1,
            "componentType" : 5126,
            "count" : 4,
            "type" : "VEC3"
        },
        {
            "bufferView" : 2,
            "componentType" : 5126,
            "count" : 4,
            "type" : "VEC2"
        },
        {
            "bufferView" : 3,
            "componentType" : 5123,
            "count" : 6,
            "type" : "SCALAR"
        },
        {
            "bufferView" : 5,
            "componentType" : 5126,
            "count" : 128,
            "max" : [
                5.797902584075928,
                0,
                9.708121299743652
            ],
            "min" : [
                -6.0399932861328125,
                0,
                -8.113815307617188
            ],
            "type" : "VEC3"
        },
        {
            "bufferView" : 6,
            "componentType" : 5126,
            "count" : 128,
            "type" : "VEC3"
        },
        {
            "bufferView" : 7,
            "componentType" : 5126,
            "count" : 128,
            "type" : "VEC2"
        },
        {
            "bufferView" : 8,
            "componentType" : 5123,
            "count" : 192,
            "type" : "SCALAR"
        },
        {
            "bufferView" : 10,
            "componentType" : 5126,
            "count" : 128,
            "max" : [
                4.6185455322265625,
                0,
                6.921623706817627
            ],
            "min" : [
                -4.851770401000977,
                0,
                -7.3359246253967285
            ],
            "type" : "VEC3"
        },
        {
            "bufferView" : 11,
            "componentType" : 5126,
            "count" : 128,
            "type" : "VEC3"
        },
        {
            "bufferView" : 12,
            "componentType" : 5126,
            "count" : 128,
            "type" : "VEC2"
        }
    ],
    "bufferViews" : [
        {
            "buffer" : 0,
            "byteLength" : 48,
            "byteOffset" : 0
        },
        {
            "buffer" : 0,
            "byteLength" : 48,
            "byteOffset" : 48
        },
        {
            "buffer" : 0,
            "byteLength" : 32,
            "byteOffset" : 96
        },
        {
            "buffer" : 0,
            "byteLength" : 12,
            "byteOffset" : 128
        },
        {
            "buffer" : 0,
            "byteLength" : 115474,
            "byteOffset" : 140
        },
        {
            "buffer" : 0,
            "byteLength" : 1536,
            "byteOffset" : 115616
        },
        {
            "buffer" : 0,
            "byteLength" : 1536,
            "byteOffset" : 117152
        },
        {
            "buffer" : 0,
            "byteLength" : 1024,
            "byteOffset" : 118688
        },
        {
            "buffer" : 0,
            "byteLength" : 384,
            "byteOffset" : 119712
        },
        {
            "buffer" : 0,
            "byteLength" : 147343,
            "byteOffset" : 120096
        },
        {
            "buffer" : 0,
            "byteLength" : 1536,
            "byteOffset" : 267440
        },
        {
            "buffer" : 0,
            "byteLength" : 1536,
            "byteOffset" : 268976
        },
        {
            "buffer" : 0,
            "byteLength" : 1024,
            "byteOffset" : 270512
        },
        {
            "buffer" : 0,
            "byteLength" : 66212,
            "byteOffset" : 271536
        }
    ],
    "samplers" : [
        {
            "magFilter" : 9729,
            "minFilter" : 9986
        }
    ],
    "buffers" : [
        {
            "byteLength" : 337748,
            "uri" : "data:application/octet-stream;base64,"
        }
    ]
}
